Coordinates
version=1
nRows=6
nColumns=36
inDegrees=yes

Units are S.I. units (second, meters, Newtons, ...)
If the header above contains a line with 'inDegrees', this indicates whether rotational values are in degrees (yes) or radians (no).

endheader
time	pelvis_tilt	pelvis_list	pelvis_rotation	pelvis_tx	pelvis_ty	pelvis_tz	hip_flexion_r	hip_adduction_r	hip_rotation_r	knee_angle_r	knee_angle_r_beta	ankle_angle_r	subtalar_angle_r	mtp_angle_r	hip_flexion_l	hip_adduction_l	hip_rotation_l	knee_angle_l	knee_angle_l_beta	ankle_angle_l	subtalar_angle_l	mtp_angle_l	lumbar_extension	lumbar_bending	lumbar_rotation	arm_flex_r	arm_add_r	arm_rot_r	elbow_flex_r	pro_sup_r	arm_flex_l	arm_add_l	arm_rot_l	elbow_flex_l	pro_sup_l
     10.11000000	    -19.21001308	     -1.02165918	      0.43484984	     -0.28031196	      0.99246286	     -0.66009272	     38.23070995	     -7.38311628	     -8.41207106	     23.53906883	      0.41083425	      3.92359100	     -7.53749279	     -7.49999987	     41.17938742	     -9.57970167	     -7.12820938	     27.73261271	      0.48402540	      2.89224740	      1.61222989	     -7.49999987	    -11.54915756	      1.75388613	      0.72949975	     62.05340411	     -7.48685795	     15.62921261	    117.24991318	    106.15452970	     61.13577551	     -5.54020281	     22.22711919	    115.70816532	    111.40239071
     10.12000000	    -18.95640126	     -1.03662034	      0.53181905	     -0.27713308	      0.99582685	     -0.65993302	     37.05757003	     -7.25489861	     -8.50884611	     22.22531049	      0.38790485	      3.50662131	     -7.30559430	     -7.49999987	     40.05590063	     -9.41429757	     -7.08365031	     26.48024627	      0.46216748	      2.54266105	      1.79679557	     -7.49999987	    -11.21731908	      1.77167376	      0.69041712	     61.07616138	     -7.55713209	     15.65992165	    117.29768856	    106.15534549	     60.19877399	     -5.59852814	     22.19869619	    115.78207183	    111.41194307
     10.13000000	    -18.54293720	     -1.03952744	      0.62352104	     -0.27383684	      0.99933815	     -0.65978961	     35.72603409	     -7.13779482	     -8.57886515	     20.94802408	      0.36561199	      2.92509515	     -7.09845972	     -7.49999987	     38.73139142	     -9.25273451	     -7.09720806	     25.19098248	      0.43966559	      2.07532290	      1.96699809	     -7.49999987	    -11.08631793	      1.79032142	      0.65988290	     60.16058356	     -7.61201462	     15.66730541	    117.33316721	    106.14957320	     59.31243643	     -5.64892831	     22.11840617	    115.86990747	    111.40562044
     10.14000000	    -18.12523175	     -1.02823981	      0.73220134	     -0.27049465	      1.00274832	     -0.65977750	     34.40266626	     -7.05248080	     -8.74292655	     19.69220804	      0.34369387	      2.33209564	     -7.05579542	     -7.49999987	     37.38866237	     -9.08580106	     -7.18304124	     23.88246123	      0.41682758	      1.62753974	      2.08523946	     -7.49999987	    -10.96384020	      1.79892264	      0.58609246	     59.27755333	     -7.68878766	     15.68055432	    117.37205009	    106.13866066	     58.46043713	     -5.69194655	     22.09060269	    115.93882645	    111.38593907
     10.15000000	    -17.81706708	     -1.02313367	      0.85733264	     -0.26723058	      1.00591034	     -0.65972129	     33.18262782	     -6.95190191	     -8.81283230	     18.42050732	      0.32149850	      1.82098951	     -6.89185438	     -7.49999987	     36.16713911	     -8.90498502	     -7.12889367	     22.56412948	      0.39381835	      1.21430115	      2.36869681	     -7.49999987	    -10.70626779	      1.78180204	      0.51219953	     58.30758411	     -7.75682539	     15.64763824	    117.43662590	    106.12501126	     57.55484659	     -5.70756200	     22.07986422	    115.98648075	    111.36433249
     10.16000000	    -17.45529893	     -1.01966657	      0.93304691	     -0.26402074	      1.00901199	     -0.65951415	     31.91166602	     -6.82079575	     -8.93432602	     17.12114074	      0.29882028	      1.30703724	     -6.74089924	     -7.49999987	     34.88979754	     -8.75516591	     -7.07480719	     21.27308076	      0.37128530	      0.77480499	      2.64436164	     -7.49999987	    -10.52966123	      1.77995145	      0.51247328	     57.37583580	     -7.79614511	     15.65009706	    117.49673541	    106.10829347	     56.69588624	     -5.76803263	     22.09448736	    116.04913094	    111.33469004
